<svg xmlns="http://www.w3.org/2000/svg" xmlns:xlink="http://www.w3.org/1999/xlink" version="1.1" x="0px" y="0px" viewBox="0 0 90 112.5" enable-background="new 0 0 90 90" xml:space="preserve"><path fill-rule="evenodd" clip-rule="evenodd" d="M8.162,72.092h39.996c0.297,2.521,1.551,4.746,3.4,6.293H15.121  C11.434,78.385,8.771,75.592,8.162,72.092z M74.902,11.65c3.688,0,6.355,2.791,6.965,6.291H67.568  C68.111,14.359,71.158,11.65,74.902,11.65z M25.412,9.385c-5.348,0-9.691,4.344-9.691,9.693v50.748H6.449  c-0.584,0-1.016,0.547-1.016,1.131c0,5.348,4.338,9.693,9.688,9.693l42.822-0.006c2.184,0,4.193-0.787,5.797-2.031  c0.934-0.693,0.35-2.172-0.807-2.037c-0.213,0.021-0.412,0.105-0.578,0.24c-1.521,0.916-3.109,1.563-4.572,1.568  c-4.043,0.02-7.225-3.152-7.418-7.152c-0.057-1.104-0.479-1.406-1.322-1.406H17.99V19.078c0-4.131,3.287-7.428,7.422-7.428h43.266  c-2.025,1.703-3.338,4.217-3.447,7.041l-0.021,7.4c-0.063,1.568,2.328,1.568,2.266,0v-5.885h15.99  c0.625-0.006,1.125-0.506,1.131-1.129c0-5.287-4.244-9.684-9.516-9.684L25.412,9.385z"/><path fill-rule="evenodd" clip-rule="evenodd" d="M66.412,63.248c0.787,0.068,1.553,0.443,2.115,1.105l7.547,8.922  c1.125,1.328,0.969,3.254-0.365,4.379c-1.328,1.125-3.254,0.965-4.379-0.363l-7.553-8.922c-1.125-1.328-0.963-3.256,0.369-4.381  C64.809,63.426,65.627,63.186,66.412,63.248z M47.131,25.072c5.506-0.068,10.99,2.229,14.828,6.766  c6.828,8.066,5.828,20.109-2.234,26.926c-8.063,6.822-20.098,5.813-26.926-2.25c-6.828-8.066-5.828-20.094,2.234-26.916  C38.564,26.613,42.85,25.123,47.131,25.072z M47.1,22.816c-4.791,0.057-9.594,1.719-13.531,5.051  c-9,7.615-10.125,21.115-2.51,30.115c7.375,8.709,20.266,10.047,29.25,3.219l1.588,1.879c-1.51,1.965-1.504,4.789,0.156,6.752  l7.547,8.916c1.912,2.262,5.318,2.547,7.574,0.637c2.26-1.914,2.553-5.318,0.635-7.58l-7.547-8.92  c-1.662-1.959-4.447-2.428-6.631-1.266l-1.594-1.887c8.215-7.723,9.027-20.65,1.656-29.359C59.408,25.311,53.256,22.744,47.1,22.816  z"/><path fill-rule="evenodd" clip-rule="evenodd" d="M47.381,36.732c6.047-0.004,9.631,3.506,13.443,6.949  c-3.807,3.438-7.381,6.932-13.432,6.938c-6.053,0.01-9.637-3.496-13.453-6.938C37.752,40.238,41.33,36.738,47.381,36.732z   M31.408,42.826c-0.516,0.449-0.516,1.252,0,1.703c4.047,3.574,8.385,8.287,15.973,8.287c7.584,0.004,11.918-4.713,15.969-8.287  c0.516-0.451,0.516-1.254,0-1.703c-4.051-3.572-8.385-8.297-15.963-8.297C39.803,34.529,35.459,39.248,31.408,42.826z"/><path fill-rule="evenodd" clip-rule="evenodd" d="M47.381,40.775c1.621,0,2.902,1.291,2.902,2.906c0,1.613-1.281,2.9-2.902,2.9  c-1.613,0-2.906-1.287-2.906-2.9C44.475,42.066,45.768,40.775,47.381,40.775z M47.381,38.51c-2.844,0-5.172,2.328-5.172,5.172  s2.328,5.166,5.172,5.166s5.168-2.322,5.168-5.166S50.225,38.51,47.381,38.51z"/><text x="0" y="105" fill="#000000" font-size="5px" font-weight="bold" font-family="'Helvetica Neue', Helvetica, Arial-Unicode, Arial, Sans-serif">Created by Cuputo</text><text x="0" y="110" fill="#000000" font-size="5px" font-weight="bold" font-family="'Helvetica Neue', Helvetica, Arial-Unicode, Arial, Sans-serif">from the Noun Project</text></svg>