<svg xmlns="http://www.w3.org/2000/svg" data-name="Layer 1" viewBox="0 0 64 80" x="0px" y="0px"><path d="M55.87,49.64c1.42,1.03,3.34-.36,2.79-2.03-.69-2.11,.07-4.43,1.86-5.73,1.42-1.03,.69-3.29-1.07-3.29-2.22,0-4.19-1.43-4.88-3.54-.54-1.67-2.91-1.67-3.45,0-.69,2.11-2.66,3.54-4.88,3.54h0c-1.76,0-2.49,2.25-1.07,3.29h0c1.8,1.31,2.55,3.62,1.86,5.73-.54,1.67,1.37,3.06,2.79,2.03,1.8-1.31,4.23-1.31,6.03,0Z"/><path d="M8.41,49.64c1.8-1.31,4.23-1.31,6.03,0,1.42,1.03,3.34-.36,2.79-2.03-.69-2.11,.07-4.43,1.86-5.73,1.42-1.03,.69-3.29-1.07-3.29-2.22,0-4.19-1.43-4.88-3.54-.54-1.67-2.91-1.67-3.45,0-.69,2.11-2.66,3.54-4.88,3.54-1.76,0-2.49,2.25-1.07,3.29,1.8,1.31,2.55,3.62,1.86,5.73-.54,1.67,1.37,3.06,2.79,2.03Z"/><path d="M35.78,57.88c1.79,1.3,4.19-.45,3.51-2.55-.86-2.65,.08-5.55,2.34-7.19,1.79-1.3,.87-4.12-1.34-4.12h0c-2.79,0-5.26-1.79-6.12-4.45-.68-2.1-3.65-2.1-4.33,0-.86,2.65-3.33,4.45-6.12,4.45h0c-2.21,0-3.12,2.82-1.34,4.12,2.25,1.64,3.2,4.54,2.34,7.19-.68,2.1,1.72,3.84,3.51,2.55,2.25-1.64,5.31-1.64,7.56,0Z"/><path d="M32,6c-7.18,0-13,5.82-13,13s5.82,13,13,13,13-5.82,13-13-5.82-13-13-13Zm-4,8c.55,0,1,.67,1,1.5s-.45,1.5-1,1.5-1-.67-1-1.5,.45-1.5,1-1.5Zm4,13c-2.76,0-5-2.24-5-5h2c0,1.65,1.35,3,3,3s3-1.35,3-3h2c0,2.76-2.24,5-5,5Zm4-10c-.55,0-1-.67-1-1.5s.45-1.5,1-1.5,1,.67,1,1.5-.45,1.5-1,1.5Z"/><text x="0" y="79" fill="#000000" font-size="5px" font-weight="bold" font-family="'Helvetica Neue', Helvetica, Arial-Unicode, Arial, Sans-serif">Created by Thirasak</text><text x="0" y="84" fill="#000000" font-size="5px" font-weight="bold" font-family="'Helvetica Neue', Helvetica, Arial-Unicode, Arial, Sans-serif">from the Noun Project</text></svg>