<?xml version="1.0" standalone="no"?>
<!DOCTYPE svg PUBLIC "-//W3C//DTD SVG 20010904//EN"
 "http://www.w3.org/TR/2001/REC-SVG-20010904/DTD/svg10.dtd">
<svg version="1.0" xmlns="http://www.w3.org/2000/svg"
 width="300.000000pt" height="100.000000pt" viewBox="0 0 300.000000 100.000000"
 preserveAspectRatio="xMidYMid meet">

<g transform="translate(0.000000,100.000000) scale(0.100000,-0.100000)"
fill="#000000" stroke="none">
<path d="M202 905 l-50 -100 50 -100 51 -100 50 100 49 101 -50 99 -50 100
-50 -100z"/>
<path d="M2515 910 c-4 -6 -62 -10 -141 -10 l-134 0 0 -235 0 -235 135 0 135
0 0 226 c0 136 4 233 10 245 11 19 6 27 -5 9z m-45 -51 c0 -6 -9 -24 -21 -40
-18 -26 -74 -142 -93 -194 -7 -17 -10 -13 -24 24 -10 23 -21 41 -27 40 -12 -5
-12 -4 13 -89 11 -36 23 -64 28 -63 4 1 20 37 34 80 30 90 58 153 88 203 l22
35 0 -197 0 -198 -120 0 -120 0 0 198 c0 109 3 202 7 205 11 12 213 8 213 -4z"/>
<path d="M560 665 l0 -235 28 0 27 0 -3 91 c-4 96 3 115 36 105 14 -5 31 -35
57 -101 35 -90 38 -95 66 -95 16 0 29 2 29 3 0 11 -44 128 -61 164 l-21 43 28
23 c24 21 28 33 32 89 5 75 -14 123 -54 138 -14 6 -57 10 -95 10 l-69 0 0
-235z m164 123 c7 -18 6 -35 -2 -53 -10 -22 -18 -25 -62 -25 l-50 0 0 48 c0
27 3 52 7 56 4 4 28 6 52 4 39 -3 47 -7 55 -30z"/>
<path d="M1490 860 c0 -36 3 -40 25 -40 23 0 25 4 25 40 0 36 -2 40 -25 40
-22 0 -25 -4 -25 -40z"/>
<path d="M1750 666 l0 -236 25 0 25 0 0 100 c0 94 1 100 21 100 15 0 27 -15
48 -62 16 -35 34 -80 40 -100 11 -34 16 -38 46 -38 l33 0 -24 65 c-13 36 -33
83 -44 105 l-20 39 30 30 c28 27 30 35 30 100 0 59 -4 74 -24 98 -22 25 -31
28 -105 31 l-81 4 0 -236z m148 142 c7 -7 12 -26 12 -43 0 -42 -16 -55 -67
-55 l-43 0 0 55 0 55 43 0 c24 0 48 -5 55 -12z"/>
<path d="M2800 665 l0 -235 25 0 25 0 0 235 0 235 -25 0 -25 0 0 -235z"/>
<path d="M2933 858 c-14 -15 -23 -37 -23 -56 0 -18 -4 -32 -10 -32 -5 0 -10
-16 -10 -35 0 -19 5 -35 10 -35 6 0 10 -46 10 -119 0 -100 3 -122 18 -141 14
-18 25 -22 45 -16 33 8 38 50 7 66 -18 10 -20 21 -20 110 0 82 3 100 15 100
10 0 15 11 15 35 0 24 -5 35 -15 35 -10 0 -15 15 -17 56 l-3 56 -22 -24z"/>
<path d="M865 754 c-65 -70 -52 -293 19 -325 48 -22 95 9 112 75 5 23 3 26
-18 26 -13 0 -29 -9 -36 -20 -22 -36 -54 -21 -67 33 l-7 27 66 0 66 0 0 48 c0
67 -17 118 -47 142 -34 27 -59 25 -88 -6z m75 -63 c5 -11 10 -32 10 -46 0 -24
-3 -26 -37 -23 -35 3 -38 5 -36 31 4 53 42 76 63 38z"/>
<path d="M1115 754 c-24 -26 -25 -26 -25 -5 0 14 -6 21 -20 21 -19 0 -20 -7
-20 -235 l0 -235 25 0 c25 0 25 1 25 80 l0 80 20 -20 c24 -24 38 -25 67 -5 30
21 46 76 46 164 0 88 -15 144 -46 166 -30 21 -44 19 -72 -11z m57 -66 c6 -13
12 -52 12 -88 0 -98 -32 -139 -68 -88 -19 26 -22 148 -6 179 14 26 47 24 62
-3z"/>
<path d="M1311 763 c-22 -18 -44 -77 -33 -87 13 -13 41 -5 47 14 13 41 70 14
63 -31 -2 -16 -15 -26 -43 -36 -54 -18 -75 -46 -75 -99 0 -86 47 -129 94 -85
26 25 36 26 36 6 0 -9 9 -15 23 -15 l22 0 -5 147 c-5 149 -13 185 -46 197 -28
11 -61 6 -83 -11z m79 -216 c0 -57 -62 -79 -68 -24 -3 21 2 29 20 36 37 15 48
13 48 -12z"/>
<path d="M1656 753 c-14 -26 -15 -27 -16 -5 0 16 -6 22 -22 22 -23 0 -23 0
-23 -170 l0 -170 25 0 c25 0 25 0 26 103 1 130 7 157 38 157 19 0 24 7 29 37
10 57 -31 74 -57 26z"/>
<path d="M2052 758 c-32 -35 -42 -72 -42 -158 0 -127 39 -192 105 -176 27 7
65 58 65 89 0 25 -47 23 -55 -4 -11 -33 -48 -21 -61 21 l-12 35 67 5 66 5 -3
50 c-7 128 -72 194 -130 133z m76 -81 c19 -40 9 -57 -33 -57 -31 0 -35 3 -35
26 0 64 43 83 68 31z"/>
<path d="M2624 769 c-43 -21 -59 -67 -59 -169 0 -109 15 -149 65 -170 60 -25
103 16 122 118 15 81 -2 164 -42 204 -30 29 -51 33 -86 17z m67 -86 c21 -40
18 -146 -5 -172 -43 -47 -76 -8 -76 89 0 71 18 110 49 110 10 0 24 -12 32 -27z"/>
<path d="M1490 600 l0 -170 25 0 25 0 0 170 0 170 -25 0 -25 0 0 -170z"/>
<path d="M54 615 l-49 -93 45 -92 c25 -51 48 -94 52 -96 4 -3 29 38 55 90 l47
96 -44 91 c-25 50 -48 92 -51 94 -3 2 -27 -38 -55 -90z"/>
<path d="M378 669 c-14 -24 -37 -68 -52 -96 l-26 -53 47 -95 c26 -52 50 -95
53 -95 3 0 27 43 53 94 l48 95 -49 97 -49 97 -25 -44z"/>
<path d="M202 329 l-50 -94 50 -99 50 -99 49 93 c27 51 49 97 49 102 0 8 -71
151 -88 176 -7 10 -23 -12 -60 -79z"/>
<path d="M1563 115 c1 -66 2 -94 4 -62 l4 57 34 0 35 0 0 -55 c0 -30 5 -55 10
-55 6 0 10 45 10 115 0 70 -4 115 -10 115 -5 0 -10 -23 -10 -51 l0 -50 -32 3
c-31 3 -33 5 -39 53 -4 30 -6 3 -6 -70z"/>
<path d="M1690 125 c4 -79 9 -108 20 -115 49 -31 71 10 68 130 l-2 95 -3 -80
c-4 -110 -9 -125 -37 -125 -31 0 -36 15 -36 116 0 46 -3 84 -7 84 -5 0 -6 -47
-3 -105z"/>
<path d="M1820 115 l0 -115 30 0 c40 0 65 37 56 82 -4 18 -7 50 -6 72 1 62 -7
76 -46 76 l-34 0 0 -115z m68 67 c4 -28 -14 -52 -39 -52 -16 0 -19 8 -19 41 0
38 1 40 28 37 19 -2 28 -9 30 -26z m1 -90 c17 -32 2 -62 -30 -62 -27 0 -29 3
-29 40 0 36 3 40 25 40 13 0 29 -8 34 -18z"/>
<path d="M670 135 c0 -13 54 -15 425 -15 371 0 425 2 425 15 0 13 -54 15 -425
15 -371 0 -425 -2 -425 -15z"/>
<path d="M1950 135 c0 -13 59 -15 470 -15 411 0 470 2 470 15 0 13 -59 15
-470 15 -411 0 -470 -2 -470 -15z"/>
</g>
</svg>
